# xmcd
#
# Track frame offsets:
#	150
#	2379
#	47385
#	92391
#	137397
#	182403
#	241719
#
# Disc length: 3268 seconds
#
# Revision: 0
# Processed by: cddbd v1.5.2PL0 Copyright (c) Steve Scherf et al.
# Submitted via: dBpowerAMP V4.0
#
DISCID=380cc207
DTITLE=nulek - key
DYEAR=1900
DGENRE=
TTITLE0=001
TTITLE1=002
TTITLE2=003
TTITLE3=004
TTITLE4=005
TTITLE5=006
TTITLE6=007
EXTD=nulek
EXTT0=
EXTT1=
EXTT2=
EXTT3=
EXTT4=
EXTT5=
EXTT6=
PLAYORDER=
